<?xml version="1.0" encoding="UTF-8"?>
<svg id="Layer_2" data-name="Layer 2" xmlns="http://www.w3.org/2000/svg" viewBox="0 0 1266.89 364.6">
  <g id="Layer_1-2" data-name="Layer 1">
    <rect width="1266.89" height="364.6" style="fill: none;"/>
    <rect x="159.48" y="80.33" width="220.6" height="258.89" rx="12" ry="12" style="fill: #000824;"/>
    <circle cx="269.78" cy="78.8" r="53.62" style="fill: #fff; stroke: #000824; stroke-miterlimit: 10; stroke-width: 3px;"/>
    <text transform="translate(201.04 293.74)" style="fill: #fff; font-family: Arial-BoldMT, Arial; font-size: 24px; font-weight: 700;"><tspan x="0" y="0">Cyber </tspan><tspan x="74.7" y="0" style="letter-spacing: -.02em;">V</tspan><tspan x="90.27" y="0">ision </tspan><tspan x="35.13" y="28.8">Center</tspan></text>
    <rect x="402.76" y="80.33" width="220.6" height="258.89" rx="12" ry="12" style="fill: #000824;"/>
    <circle cx="513.05" cy="78.8" r="53.62" style="fill: #fff; stroke: #000824; stroke-miterlimit: 10; stroke-width: 3px;"/>
    <text transform="translate(465.7 305.1)" style="fill: #fff; font-family: Arial-BoldMT, Arial; font-size: 24px; font-weight: 700;"><tspan x="0" y="0">Sensors</tspan></text>
    <rect x="646.03" y="80.33" width="220.6" height="258.89" rx="12" ry="12" style="fill: #000824;"/>
    <circle cx="756.33" cy="78.8" r="53.62" style="fill: #fff; stroke: #000824; stroke-miterlimit: 10; stroke-width: 3px;"/>
    <rect x="889.31" y="80.33" width="220.6" height="258.89" rx="12" ry="12" style="fill: #000824;"/>
    <circle cx="999.6" cy="78.8" r="53.62" style="fill: #fff; stroke: #000824; stroke-miterlimit: 10; stroke-width: 3px;"/>
    <text transform="translate(669.65 293.42)" style="fill: #fff; font-family: Arial-BoldMT, Arial; font-size: 24px; font-weight: 700;"><tspan x="0" y="0">Edge/Industrial </tspan><tspan x="39.33" y="28.8">Network</tspan></text>
    <text transform="translate(900.24 293.42)" style="fill: #fff; font-family: Arial-BoldMT, Arial; font-size: 24px; font-weight: 700;"><tspan x="0" y="0">Security Platform </tspan><tspan x="37.37" y="28.8">Integration</tspan></text>
    <g>
      <path d="M227.32,250.79h0l-5.98-6.15v-1.02h39.8l3.59,3.59h19.13l3.5-3.59h39.8v1.02l-5.98,6.15h-93.87ZM330.59,246.09h0v-6.15h-44.75l-3.59,3.67h-16.14l-3.5-3.67h-44.84v6.15l8.03,8.37h96.6l8.03-8.37h.17Z" style="fill: #16bdeb;"/>
      <path d="M228.09,236.53h3.5v-49.37c0-1.88,1.54-3.5,3.5-3.5h77.38c1.88,0,3.5,1.62,3.5,3.5v49.37h3.5v-49.37c0-3.93-3.07-7-7-7h-77.38c-3.84,0-7,3.07-7,7v49.37h0Z" style="fill: #16bdeb;"/>
      <polygon points="295.4 216.45 295.4 216.45 281.13 198.95 267.13 219.62 253.29 202.7 245.43 210.48 242.7 210.48 242.7 213.89 246.97 213.89 253.12 207.91 267.38 225.51 281.47 204.84 295.23 221.66 303.08 213.89 305.82 213.89 305.82 210.48 301.63 210.48 295.48 216.45 295.4 216.45" style="fill: #16bdeb;"/>
      <path d="M291.81,166.23h0c0,4.87,3.93,8.8,8.71,8.8s1.11,0,1.71-.17v1.88h3.5c0-1.37-.09-2.82-.34-4.53-.17-.51-.43-1.02-1.02-1.28-.43-.26-1.02-.26-1.54,0-.77.43-1.62.6-2.39.6-2.9,0-5.3-2.39-5.3-5.3s1.54-4.36,3.76-4.95c.6-.17,1.02-.6,1.2-1.11s.17-1.11-.17-1.62c-2.14-2.9-4.61-5.47-7.6-7.52-.43-.34-1.02-.43-1.62-.26-.51.17-.94.68-1.11,1.2-.68,2.22-2.73,3.76-5.04,3.76s-5.3-2.39-5.3-5.3.17-1.54.6-2.39c.26-.43.26-1.02,0-1.54s-.77-.85-1.28-.94c-3.42-.43-5.64-.43-9.05,0-.51,0-1.02.43-1.28.94s-.26,1.11,0,1.54c.43.77.6,1.62.6,2.39,0,2.9-2.39,5.3-5.3,5.3s-4.36-1.54-5.04-3.76c-.17-.51-.6-1.02-1.11-1.2s-1.11,0-1.62.26c-2.9,2.05-5.47,4.61-7.52,7.52-.34.43-.43,1.02-.26,1.62.17.51.68.94,1.2,1.11,2.22.68,3.76,2.73,3.76,4.95s-2.39,5.3-5.3,5.3-1.54-.17-2.39-.6c-.51-.26-1.11-.26-1.54,0-.51.26-.85.77-.94,1.28-.26,1.71-.43,3.16-.43,4.53h3.5c0-.6,0-1.28.09-1.88.51.17,1.11.17,1.62.17,4.87,0,8.71-3.93,8.71-8.8s-1.54-5.81-4.01-7.35c1.11-1.28,2.39-2.56,3.67-3.67,1.54,2.48,4.36,4.1,7.35,4.1,4.87,0,8.71-3.93,8.71-8.8s0-1.11-.17-1.62c1.37-.17,2.48-.17,3.84,0,0,.51-.17,1.11-.17,1.62,0,4.87,3.93,8.8,8.71,8.8s5.81-1.62,7.35-4.1c1.37,1.11,2.56,2.39,3.67,3.67-2.48,1.54-4.01,4.36-4.01,7.35h.6Z" style="fill: #16bdeb;"/>
      <path d="M267.38,176.74h3.42c0-1.88,1.54-3.42,3.42-3.42s3.42,1.54,3.42,3.42h3.42c0-3.76-3.07-6.83-6.83-6.83s-6.83,3.07-6.83,6.83Z" style="fill: #16bdeb;"/>
      <path d="M286.09,176.74h3.5c0-8.46-7.09-15.37-15.8-15.37s-15.8,6.92-15.8,15.37h3.5c0-6.58,5.55-11.87,12.3-11.87s12.3,5.3,12.3,11.87Z" style="fill: #16bdeb;"/>
      <path d="M239.28,190.58h69.78v42.45h-69.78v-42.45ZM235.78,236.53h76.87v-49.54h-76.87v49.54Z" style="fill: #16bdeb;"/>
    </g>
    <g>
      <path d="M997.47,201.2h0v19.99c-3.76-3.25-10.59-10.33-12.73-19.99h12.73ZM1000.71,221.19h0v-19.99h12.81c-2.22,9.74-9.05,16.74-12.81,19.99ZM1014.21,195.22h0c0,.94,0,1.88-.17,2.73h-13.32v-9.74c2.99,2.22,7.86,3.93,13.49,4.44v2.56h0ZM984.06,195.31h0v-2.65c5.64-.51,10.51-2.14,13.49-4.44v9.74h-13.24c-.17-.85-.17-1.79-.17-2.65h-.09ZM999.09,226.48h0l.94-.6c.68-.43,17.25-11.87,17.34-30.58v-5.64l-1.54-.17c-8.37-.43-15.2-3.59-15.2-6.83v-.68h-3.25v.68c0,3.33-6.83,6.41-15.2,6.83l-1.45.17v5.64c.17,18.7,16.74,30.06,17.42,30.58l.94.6Z" style="fill: #16bdeb;"/>
      <rect x="997.04" y="147.91" width="5.12" height="3.42" style="fill: #16bdeb;"/>
      <rect x="1004.73" y="147.91" width="5.12" height="3.42" style="fill: #16bdeb;"/>
      <rect x="989.35" y="147.91" width="5.12" height="3.42" style="fill: #16bdeb;"/>
      <rect x="997.04" y="254.67" width="5.12" height="3.42" style="fill: #16bdeb;"/>
      <rect x="989.35" y="254.67" width="5.12" height="3.42" style="fill: #16bdeb;"/>
      <rect x="1004.73" y="254.67" width="5.12" height="3.42" style="fill: #16bdeb;"/>
      <polygon points="954.34 175.07 954.34 175.07 951.69 173.53 949.21 177.97 951.86 179.51 954.34 175.07" style="fill: #16bdeb;"/>
      <polygon points="958.61 168.23 958.61 168.23 955.96 166.7 953.48 171.14 956.13 172.68 958.61 168.23" style="fill: #16bdeb;"/>
      <polygon points="950.92 181.9 950.92 181.9 948.27 180.36 945.8 184.8 948.44 186.34 950.92 181.9" style="fill: #16bdeb;"/>
      <polygon points="1044.02 231.69 1044.02 231.69 1046.67 233.32 1049.14 228.96 1046.49 227.34 1044.02 231.69" style="fill: #16bdeb;"/>
      <polygon points="1039.75 238.36 1039.75 238.36 1042.39 240.15 1044.87 235.11 1042.22 233.32 1039.75 238.36" style="fill: #16bdeb;"/>
      <polygon points="1047.43 224.86 1047.43 224.86 1050.51 226.4 1053.41 221.96 1050.34 220.42 1047.43 224.86" style="fill: #16bdeb;"/>
      <polygon points="951.86 227.34 951.86 227.34 949.21 228.96 951.69 233.32 954.34 231.69 951.86 227.34" style="fill: #16bdeb;"/>
      <polygon points="948.44 220.51 948.44 220.51 945.8 222.04 948.27 226.48 950.92 224.95 948.44 220.51" style="fill: #16bdeb;"/>
      <polygon points="953.48 235.11 953.48 235.11 955.96 240.15 958.61 238.36 956.13 233.32 953.48 235.11" style="fill: #16bdeb;"/>
      <path d="M978.42,241.77h0l9.74-17c5.47,6.32,10.33,9.91,10.51,9.99l.94.68.94-.68c.17,0,5.12-3.59,10.51-9.99l9.65,16.91c-.85.68-1.71,1.54-2.39,2.65-.51.94-.85,1.79-1.02,2.82h-35.7c-.34-2.05-1.45-4.01-3.07-5.38h-.09ZM1020.7,164.39h0l-9.57,16.74c-5.98-2.05-9.91-5.12-9.91-8.46v-.6h-3.25v.6c0,3.33-3.93,6.49-9.91,8.46l-9.57-16.66c1.02-.68,1.79-1.62,2.39-2.65.51-.85.85-1.79,1.02-2.73h35.7c.43,2.05,1.45,3.93,3.07,5.3ZM1048.54,206.33h0c-.85-1.37-1.11-2.99-.68-4.53.51-1.54,1.45-2.9,2.9-3.67.94-.51,2.05-.85,3.07-.85,2.22,0,4.27,1.2,5.38,2.99.77,1.45,1.11,2.99.6,4.53-.43,1.54-1.37,2.9-2.9,3.67-1.37.77-3.07,1.02-4.61.6-1.62-.43-2.99-1.37-3.76-2.82v.09ZM1023.6,240.15h0l-10.42-18.11c3.59-4.7,7.09-10.59,9.31-17.42h22.12c.17,1.11.51,2.22,1.2,3.25.51.85,1.11,1.62,1.96,2.22l-17.94,30.15c-2.05-.68-4.19-.68-6.15-.17l-.09.09ZM1021.13,245.87h0c1.11-1.79,3.16-2.99,5.38-2.99s2.14.34,3.07.85c1.45.77,2.48,2.05,2.9,3.67.43,1.54.17,3.16-.6,4.61-1.71,2.9-5.47,3.84-8.46,2.14-1.37-.77-2.39-2.14-2.9-3.67-.43-1.54-.17-3.16.6-4.53v-.09ZM972.27,242.63h0c3.42,0,6.15,2.65,6.15,5.98s-2.73,5.98-6.15,5.98-6.15-2.65-6.15-5.98,2.73-5.98,6.15-5.98ZM954.51,204.7h22.21c2.14,6.83,5.72,12.73,9.31,17.42l-10.33,18.02c-1.11-.34-2.22-.68-3.42-.68s-2.05.17-2.99.51l-17.85-30.06c1.71-1.37,2.73-3.16,3.16-5.21h-.09ZM950.75,199.84h0c1.71,2.9.68,6.58-2.31,8.2-1.45.77-3.07,1.02-4.7.6s-2.99-1.37-3.76-2.82c-.77-1.37-1.11-2.99-.6-4.53.43-1.54,1.37-2.82,2.9-3.67.94-.51,2.05-.77,3.07-.77,2.22,0,4.19,1.2,5.38,2.99h0ZM972.7,166.53h0c1.02,0,2.05-.17,2.99-.51l9.22,16.23c-2.65.68-5.64,1.11-8.71,1.28h-1.54v7.6c0,3.76.51,7.17,1.37,10.51h-21.18c-.17-1.11-.51-2.22-1.11-3.25-.51-.94-1.2-1.62-1.96-2.31l17.85-30.06c1.02.34,2.14.6,3.25.6l-.17-.09ZM978,160.29h0c-1.71,2.9-5.47,3.84-8.46,2.22-1.45-.77-2.48-2.05-2.9-3.67s-.17-3.16.6-4.53c1.11-1.79,3.16-2.99,5.38-2.99s2.14.26,3.07.77c2.99,1.71,3.93,5.38,2.31,8.2h0ZM1020.7,157.56h0c0-3.33,2.82-6.06,6.15-6.06s6.23,2.73,6.23,6.06-2.82,5.98-6.23,5.98-6.15-2.73-6.15-5.98ZM1044.62,201.54h-21.35c.77-3.33,1.37-6.75,1.37-10.51v-7.52h-1.45c-3.16-.26-6.15-.68-8.88-1.45l9.22-16.06c1.11.43,2.22.68,3.42.68s2.05-.17,2.99-.43l17.85,30.06c-1.71,1.37-2.73,3.16-3.16,5.21h0ZM977.82,191.04h0v-4.53c3.16-.34,6.06-.77,8.71-1.54h0l.43-.17c5.89-1.62,10.42-4.19,12.73-7.43,2.31,3.16,6.75,5.81,12.56,7.35l.51.26h0c2.65.6,5.64,1.11,8.8,1.45v4.53c-.17,22.04-17.42,36.98-21.87,40.48-4.44-3.5-21.52-18.45-21.78-40.48l-.09.09ZM1062.04,198.73h0c-2.39-3.93-7.17-5.55-11.44-4.01l-17.77-29.98c2.14-1.71,3.59-4.27,3.59-7.17,0-5.12-4.27-9.14-9.48-9.14s-8.46,3.16-9.31,7.52h-35.7c-.43-2.65-2.05-5.12-4.61-6.58-2.14-1.11-4.7-1.45-7.09-.85-2.48.6-4.53,2.05-5.81,4.27-1.2,2.05-1.54,4.53-.94,6.92.51,1.88,1.62,3.5,3.07,4.7l-17.85,30.06c-2.56-1.02-5.55-.94-8.11.51-2.22,1.28-3.76,3.25-4.44,5.64-.68,2.39-.34,4.87.94,6.92,1.28,2.14,3.33,3.67,5.72,4.27.77.17,1.71.34,2.48.34s2.22-.17,3.25-.6l17.85,30.06c-2.22,1.71-3.59,4.27-3.59,7.17,0,5.04,4.27,9.14,9.48,9.14s8.54-3.25,9.31-7.6h35.7c.43,2.65,2.05,5.12,4.61,6.58,1.37.85,2.99,1.2,4.7,1.2,3.33,0,6.49-1.79,8.2-4.53,1.28-2.14,1.62-4.61.94-7-.51-1.79-1.62-3.42-3.07-4.61l17.85-30.06c1.11.43,2.31.68,3.5.68s3.25-.43,4.7-1.28c2.14-1.28,3.67-3.16,4.36-5.55.68-2.39.34-4.87-.94-7h-.09Z" style="fill: #16bdeb;"/>
      <polygon points="1046.49 179.51 1046.49 179.51 1049.14 177.97 1046.67 173.53 1044.02 175.07 1046.49 179.51" style="fill: #16bdeb;"/>
      <polygon points="1050.34 186.34 1050.34 186.34 1053.41 184.8 1050.51 180.36 1047.43 181.9 1050.34 186.34" style="fill: #16bdeb;"/>
      <polygon points="1044.87 171.05 1044.87 171.05 1042.39 166.61 1039.75 168.15 1042.22 172.59 1044.87 171.05" style="fill: #16bdeb;"/>
    </g>
    <g>
      <path d="M803.67,221.87h0c0,1.71-1.45,3.16-3.33,3.16h-6.49v-60.81h6.49c1.79,0,3.33,1.37,3.33,3.16v54.49ZM777.62,234.68h-12.98v12.81h-6.49v-19.22h19.56v6.41h-.09ZM800.34,241.09h-32.54v-3.25h32.54v3.25ZM793.93,244.33h6.49v3.16h-6.49v-3.16ZM790.6,247.49h-12.98v-3.16h12.98v3.16ZM767.79,244.33h6.49v3.16h-6.49v-3.16ZM709.2,241.09h29.3v6.41h-3.25v-3.16h-3.33v3.16h-3.25v-3.16h-3.25v3.16h-3.33v-3.16h-3.25v3.16h-3.25v-3.16h-3.33v3.16h-3.25v-6.41h.17ZM725.52,228.28h22.8v19.22h-6.49v-9.57h-16.23v-9.57l-.09-.09ZM725.52,202.74h22.8v22.38h-22.8v-22.38ZM754.81,247.49h-3.33v-19.22h3.33v19.22ZM705.96,221.87h0v-54.41c0-1.79,1.45-3.16,3.25-3.16h6.49v60.81h-6.49c-1.79,0-3.25-1.45-3.25-3.16v-.09ZM800.34,161.06h-16.23v3.25h6.49v60.81h-32.54v-16.06h29.3v-3.16h-6.49v-19.22h-25.96v3.16h22.72v16.06h-22.72v19.22h-3.33v-25.62h-29.3v25.62h-3.25v-60.81h32.54v-3.25h-42.28c-3.59,0-6.49,2.9-6.49,6.41v54.41c0,3.5,2.9,6.41,6.49,6.41h12.98v9.57h-16.23v9.57h-3.33v3.25h104.2v-3.25h-3.25v-12.81h-22.8v-6.41h19.56c3.59,0,6.49-2.9,6.49-6.41v-54.41c0-3.5-2.9-6.41-6.49-6.41l-.09.09Z" style="fill: #16bdeb;"/>
      <rect x="797.52" y="188.39" width="3.42" height="12.81" style="fill: #16bdeb;"/>
      <path d="M725.6,170.97h22.55v15.8h-5.47l-5.81,5.64-5.72-5.64h-5.47v-15.8h-.09ZM729.79,189.93h0l7.09,7,7.17-7h7.35v-22.04h-29.04v22.04h7.43Z" style="fill: #16bdeb;"/>
      <rect x="729.19" y="173.87" width="16.23" height="3.42" style="fill: #16bdeb;"/>
      <rect x="729.19" y="180.7" width="16.23" height="2.56" style="fill: #16bdeb;"/>
      <path d="M768.05,151.32h0c5.47,0,9.91,4.36,9.91,9.65s-7.09,15.46-9.91,18.53c-2.9-3.07-9.91-11.44-9.91-18.53s4.44-9.65,9.91-9.65ZM768.05,184.12h0l1.2-1.11c.51-.51,12.04-11.87,12.04-21.95s-5.89-12.73-13.24-12.73-13.24,5.72-13.24,12.73c0,10.16,11.53,21.52,12.04,21.95l1.2,1.11Z" style="fill: #16bdeb;"/>
      <path d="M764.89,161.4h0c0-1.71,1.45-3.16,3.16-3.16s3.16,1.45,3.16,3.16-1.45,3.25-3.16,3.25-3.16-1.45-3.16-3.25ZM774.46,161.4h0c0-3.59-2.9-6.41-6.41-6.41s-6.41,2.82-6.41,6.41,2.9,6.41,6.41,6.41,6.41-2.9,6.41-6.41Z" style="fill: #16bdeb;"/>
      <rect x="758.23" y="193.52" width="3.42" height="3.42" style="fill: #16bdeb;"/>
      <rect x="765.06" y="193.52" width="2.56" height="3.42" style="fill: #16bdeb;"/>
      <rect x="758.23" y="199.49" width="3.42" height="3.42" style="fill: #16bdeb;"/>
      <rect x="765.06" y="199.49" width="2.56" height="3.42" style="fill: #16bdeb;"/>
      <rect x="771.04" y="193.52" width="3.42" height="3.42" style="fill: #16bdeb;"/>
      <rect x="771.04" y="199.49" width="3.42" height="3.42" style="fill: #16bdeb;"/>
      <rect x="761.64" y="212.31" width="19.64" height="3.42" style="fill: #16bdeb;"/>
      <rect x="761.64" y="218.28" width="19.64" height="3.42" style="fill: #16bdeb;"/>
      <rect x="729.19" y="205.47" width="3.42" height="3.42" style="fill: #16bdeb;"/>
      <rect x="736.02" y="205.47" width="2.56" height="3.42" style="fill: #16bdeb;"/>
      <rect x="742" y="205.47" width="3.42" height="3.42" style="fill: #16bdeb;"/>
      <rect x="729.19" y="212.31" width="3.42" height="3.42" style="fill: #16bdeb;"/>
      <rect x="736.02" y="212.31" width="2.56" height="3.42" style="fill: #16bdeb;"/>
      <rect x="742" y="212.31" width="3.42" height="3.42" style="fill: #16bdeb;"/>
      <rect x="729.19" y="218.28" width="3.42" height="3.42" style="fill: #16bdeb;"/>
      <rect x="736.02" y="218.28" width="2.56" height="3.42" style="fill: #16bdeb;"/>
      <rect x="742" y="218.28" width="3.42" height="3.42" style="fill: #16bdeb;"/>
      <rect x="729.19" y="231.1" width="3.42" height="3.42" style="fill: #16bdeb;"/>
      <rect x="736.02" y="231.1" width="2.56" height="3.42" style="fill: #16bdeb;"/>
      <rect x="742" y="231.1" width="3.42" height="3.42" style="fill: #16bdeb;"/>
    </g>
    <g>
      <path d="M550.14,159.06h0c0-2.99-2.63-5.43-5.71-5.43h-63.85c-3.17,0-5.71,2.35-5.71,5.43v78.71c0,3.08,2.54,5.52,5.71,5.52h11.23v-3.71h-11.23c-1.09,0-1.9-.72-1.9-1.81v-78.71c0-1,.82-1.81,1.9-1.81h63.85c1.09,0,1.9.82,1.9,1.81v78.71c0,1.09-.82,1.81-1.9,1.81h-11.23v3.71h11.23c3.08,0,5.71-2.45,5.71-5.52v-78.71Z" style="fill: #16bdeb; fill-rule: evenodd;"/>
      <path d="M499.24,242.38h0c0-1.99,1.63-3.71,3.62-3.71s3.71,1.63,3.71,3.71-1.63,3.62-3.71,3.62-3.62-1.63-3.62-3.62ZM504.77,260.5h0v-11.14c3.17-.72,5.52-3.62,5.52-6.97s-3.26-7.25-7.34-7.25-7.43,3.26-7.43,7.25,2.45,6.16,5.62,6.97v11.14c0,1-.82,1.81-1.81,1.81h-46.1v3.62h46.1c2.99,0,5.52-2.45,5.52-5.43h-.09Z" style="fill: #16bdeb; fill-rule: evenodd;"/>
      <path d="M517.72,242.38h0c0-1.99,1.72-3.71,3.8-3.71s3.8,1.63,3.8,3.71-1.63,3.62-3.8,3.62-3.8-1.63-3.8-3.62ZM523.33,260.5h0v-11.14c3.26-.72,5.71-3.62,5.71-6.97s-3.35-7.25-7.52-7.25-7.61,3.26-7.61,7.25,2.35,6.16,5.71,6.97v11.14c0,2.99,2.54,5.43,5.71,5.43h47.55v-3.62h-47.55c-1,0-1.9-.82-1.9-1.81h-.09Z" style="fill: #16bdeb; fill-rule: evenodd;"/>
      <path d="M486.74,159.97h-3.62v3.62h3.62v-3.62Z" style="fill: #16bdeb; fill-rule: evenodd;"/>
      <path d="M541.99,159.97h-3.62v3.62h3.62v-3.62Z" style="fill: #16bdeb; fill-rule: evenodd;"/>
      <path d="M482.21,236.04h3.62v-3.62h-3.62v3.62Z" style="fill: #16bdeb; fill-rule: evenodd;"/>
      <path d="M541.99,232.42h-3.62v3.62h3.62v-3.62Z" style="fill: #16bdeb; fill-rule: evenodd;"/>
      <path d="M508.66,195.74h0c0-2.17,1.72-3.8,3.8-3.8s3.89,1.72,3.89,3.8-1.72,3.8-3.89,3.8-3.8-1.72-3.8-3.8ZM520.25,195.74h0c0-4.26-3.44-7.7-7.7-7.7s-7.7,3.44-7.7,7.7,3.44,7.7,7.7,7.7,7.7-3.44,7.7-7.7Z" style="fill: #16bdeb; fill-rule: evenodd;"/>
      <path d="M512.01,217.75h0c-12.32,0-22.46-9.87-22.46-22.01s10.14-22.01,22.46-22.01,22.55,9.87,22.55,22.01-5.25,16.3-12.77,19.83l-8.42-8.33-2.63,2.63,7.25,7.16c-1.9.45-3.89.82-5.98.82v-.09ZM530.04,228.8h11.96v-3.62h-10.51l-6.97-6.79c8.15-4.35,13.68-12.86,13.68-22.64,0-14.22-11.77-25.81-26.27-25.81s-26.17,11.59-26.17,25.81,11.77,25.72,26.17,25.72,6.16-.54,8.88-1.54l9.15,8.97.09-.09Z" style="fill: #16bdeb; fill-rule: evenodd;"/>
      <path d="M513.01,177.17h0c-10.42,0-19.02,8.51-19.02,19.02h3.89c0-8.33,6.79-15.22,15.13-15.22v-3.8Z" style="fill: #16bdeb; fill-rule: evenodd;"/>
      <path d="M490.37,258.69h3.62v-3.62h-3.62v3.62Z" style="fill: #16bdeb; fill-rule: evenodd;"/>
      <path d="M485.84,255.06h-3.62v3.62h3.62v-3.62Z" style="fill: #16bdeb; fill-rule: evenodd;"/>
      <path d="M474.97,258.69h3.62v-3.62h-3.62v3.62Z" style="fill: #16bdeb; fill-rule: evenodd;"/>
      <path d="M545.61,258.69h4.53v-3.62h-4.53v3.62Z" style="fill: #16bdeb; fill-rule: evenodd;"/>
      <path d="M541.99,255.06h-3.62v3.62h3.62v-3.62Z" style="fill: #16bdeb; fill-rule: evenodd;"/>
      <path d="M534.74,255.06h-3.62v3.62h3.62v-3.62Z" style="fill: #16bdeb; fill-rule: evenodd;"/>
    </g>
  </g>
</svg>